<?xml version="1.0" encoding="utf-8"?>
<!-- Generator: Adobe Illustrator 19.1.0, SVG Export Plug-In . SVG Version: 6.00 Build 0)  -->
<svg version="1.1" id="Layer_1" xmlns="http://www.w3.org/2000/svg" xmlns:xlink="http://www.w3.org/1999/xlink" x="0px" y="0px"
	 width="836.6px" height="358.5px" viewBox="0 0 836.6 358.5" style="enable-background:new 0 0 836.6 358.5;" xml:space="preserve"
	>
<g>
	<polygon style="fill-rule:evenodd;clip-rule:evenodd;fill:#CB282C;" points="418.3,358.5 418.3,0 836.6,0 836.6,358.5 418.3,358.5 
			"/>
	<polygon style="fill-rule:evenodd;clip-rule:evenodd;fill:#F58220;" points="0,358.5 0,0 418.3,0 418.3,358.5 0,358.5 	"/>
	<path style="fill-rule:evenodd;clip-rule:evenodd;fill:#FFFFFF;" d="M209.2,118.9c22.4,0,40.8,17.5,42.1,39.6l33.4,0
		c-1.4-40.5-34.6-72.9-75.5-72.9c-40.8,0-74.1,32.4-75.5,72.9l33.4,0C168.4,136.4,186.7,118.9,209.2,118.9L209.2,118.9z"/>
	<path style="fill-rule:evenodd;clip-rule:evenodd;fill:#FFFFFF;" d="M256.4,220c15-12,25.3-29.6,27.8-49.6h-33.8
		c-4.2,18.9-21,33-41.2,33c-20.1,0-36.9-14.1-41.2-33h-1h-32.7h-0.6v102.5H167v-49.2c12.1,8.2,26.5,13,42.2,13
		c21.3,0,38.9,15.8,41.8,36.2h33.5C282.8,251.6,272.2,232.7,256.4,220L256.4,220z"/>
	<path style="fill-rule:evenodd;clip-rule:evenodd;fill:#FFFFFF;" d="M475.8,107.3c-2.2,0-4,0.4-5.3,1.2c-1.3,0.8-2.3,1.7-3,3
		c-0.7,1.2-1.1,2.6-1.3,4.1c-0.2,1.5-0.3,3-0.3,4.4c0,1.4,0.1,2.7,0.3,4.1c0.2,1.3,0.6,2.5,1.2,3.6c0.6,1.1,1.5,1.9,2.7,2.5
		c1.2,0.7,2.8,1,4.7,1c2,0,3.7-0.3,4.9-1c1.2-0.7,2.1-1.5,2.7-2.6c0.6-1,1.1-2.3,1.2-3.7c0.2-1.4,0.3-2.9,0.3-4.4
		c0-1.6-0.1-3.1-0.3-4.5c-0.2-1.5-0.6-2.7-1.2-3.9c-0.6-1.2-1.4-2-2.5-2.7C479,107.6,477.6,107.3,475.8,107.3L475.8,107.3z
		 M460.4,119.9c0-4.2,0.1-8,0.4-11.5c0.2-3.5,0.8-6.5,1.7-9.2c0.9-2.7,2.3-4.9,4.2-6.8c1.8-1.9,4.3-3.3,7.5-4.3c1.9-0.5,3.9-1,6-1.4
		c2.1-0.4,4-0.8,5.6-1.2c0.4-0.1,0.7-0.1,0.9-0.1c0.1,0.1,0.3,0.3,0.4,0.6l0.5,2.2c0.3,0.9,0,1.5-0.8,1.6c-1.8,0.4-3.4,0.8-4.8,1.1
		c-1.4,0.3-2.7,0.6-4,0.9c-2.2,0.5-4.1,1.2-5.5,2c-1.4,0.7-2.6,1.7-3.5,2.8c-0.9,1.2-1.6,2.5-2.1,4.1c-0.5,1.6-0.8,3.5-1,5.7
		c0,0,0.1,0,0.2,0.1c1.2-1.5,2.7-2.5,4.4-3.2c1.8-0.6,3.8-1,5.9-1c2.4,0,4.4,0.4,6.1,1.3c1.7,0.8,3,2,4,3.5c1,1.4,1.7,3.2,2.2,5.3
		c0.4,2,0.6,4.2,0.6,6.5c0,2-0.2,4-0.5,6.1c-0.3,2-1.1,3.9-2.1,5.5c-1.1,1.6-2.6,2.9-4.5,4c-1.9,1-4.5,1.5-7.7,1.5
		c-3,0-5.4-0.5-7.3-1.4c-1.9-0.9-3.3-2.2-4.3-3.8c-1-1.5-1.7-3.3-2.1-5.2C460.6,123.8,460.4,121.8,460.4,119.9L460.4,119.9z"/>
	<path style="fill-rule:evenodd;clip-rule:evenodd;fill:#FFFFFF;" d="M518.8,118.8h-10.5c-2.2,0-3.9,0.5-5.2,1.5
		c-1.3,1-1.9,2.9-1.9,5.7c0,2,0.4,3.4,1.2,4.1c0.8,0.7,2.2,1.1,4.3,1.1c0.9,0,1.9-0.1,3-0.4c1-0.3,2.1-0.5,3.2-0.9
		c1.1-0.4,2.2-0.8,3.2-1.4c1-0.4,1.9-0.9,2.7-1.4V118.8L518.8,118.8z M518.7,131.7c-1.7,1.1-3.7,2.1-5.9,3c-2.2,0.9-4.6,1.4-7.5,1.4
		c-3.5,0-5.9-0.8-7.4-2.5c-1.5-1.7-2.2-4.1-2.2-7.3c0-4,1-7,3.1-9c2-2,5.5-3,10.1-3l9.8,0v-2.4c0-2.6-0.6-4.5-1.8-5.4
		c-1.2-1-3.4-1.5-6.5-1.5c-0.6,0-1.4,0-2.2,0c-0.8,0-1.7,0.1-2.6,0.1c-0.9,0.1-1.8,0.1-2.7,0.2c-0.9,0-1.8,0.1-2.5,0.2
		c-0.8,0.1-1.3-0.1-1.4-0.7l-0.4-1.8c-0.1-0.3-0.1-0.6,0.1-0.9c0.1-0.2,0.5-0.5,1-0.7c0.7-0.2,1.6-0.4,2.6-0.7
		c1-0.2,2.1-0.3,3.2-0.5c1.1-0.1,2.2-0.2,3.2-0.2c1.1,0,2-0.1,2.9-0.1c2.9,0,5.1,0.3,6.8,0.9c1.7,0.6,3,1.5,3.9,2.6
		c0.9,1.1,1.5,2.4,1.7,4c0.2,1.6,0.4,3.3,0.4,5.2v15.7c0,0.8,0,1.3,0.1,1.6c0.1,0.4,0.2,0.7,0.4,0.9c0.2,0.2,0.4,0.3,0.8,0.4
		c0.3,0.1,0.8,0.2,1.4,0.2c0.8,0,1.2,0.3,1.2,0.9v1.8c0,0.3-0.1,0.6-0.3,0.8c-0.2,0.2-0.6,0.4-1.1,0.4c-0.9,0.2-1.7,0.2-2.5,0.2
		c-1.7,0-2.9-0.3-3.7-0.9c-0.8-0.6-1.3-1.7-1.5-3.2L518.7,131.7L518.7,131.7z"/>
	<path style="fill-rule:evenodd;clip-rule:evenodd;fill:#FFFFFF;" d="M560.3,135.5h-2c-1.2,0-1.7-0.5-1.7-1.4v-14.6h-18.1v14.6
		c0,0.9-0.5,1.4-1.5,1.4h-2.2c-1.1,0-1.6-0.5-1.6-1.4v-31.8c0-0.6,0.1-1,0.4-1.2c0.3-0.2,0.6-0.3,1.2-0.3h2.2c0.5,0,0.9,0.1,1.2,0.3
		c0.3,0.2,0.4,0.6,0.4,1.2l0,12.5h18.1v-12.5c0-0.6,0.2-1,0.5-1.2c0.3-0.2,0.7-0.3,1.3-0.3h2c0.5,0,0.9,0.1,1.2,0.3
		c0.2,0.2,0.4,0.6,0.4,1.2v31.8C561.9,135,561.3,135.5,560.3,135.5L560.3,135.5z"/>
	<path style="fill-rule:evenodd;clip-rule:evenodd;fill:#FFFFFF;" d="M575.2,134.5c0,0.7-0.3,1-1,1h-3.4c-0.7,0-1.1-0.3-1.1-1v-32.6
		c0-0.4,0.1-0.7,0.3-0.8c0.2-0.2,0.5-0.2,0.8-0.2h3.4c0.4,0,0.6,0,0.8,0.2c0.1,0.1,0.2,0.4,0.2,0.8v13.7h4.8c0.6,0,1.3-0.1,2-0.2
		c0.7-0.1,1.3-0.3,2-0.8c0.7-0.4,1.2-0.9,1.8-1.7c0.6-0.8,1.1-1.8,1.5-3.1l2.7-7.9c0.2-0.5,0.3-0.8,0.6-0.9c0.2-0.2,0.6-0.2,1-0.2
		h2.6c0.6,0,1,0.1,1.2,0.3c0.1,0.3,0.1,0.6-0.1,1.1l-2.6,7.7c-0.7,1.9-1.4,3.6-2.2,4.9c-0.8,1.4-1.8,2.2-3,2.6
		c0.9,0.3,1.6,0.7,2.2,1.2c0.6,0.4,1.1,1,1.6,1.6c0.4,0.6,0.8,1.3,1.2,2.1c0.3,0.8,0.6,1.6,0.9,2.6l3,9.1c0.1,0.5,0.2,0.9,0.1,1.1
		c-0.1,0.3-0.5,0.4-1.1,0.4h-2.9c-0.4,0-0.7-0.1-0.9-0.2c-0.2-0.1-0.4-0.4-0.6-0.9l-2.7-8.3c-0.4-1.3-0.9-2.3-1.5-3.1
		c-0.6-0.8-1.2-1.4-1.9-1.8c-0.7-0.4-1.4-0.6-2.1-0.7c-0.8-0.1-1.5-0.2-2.3-0.2h-5V134.5L575.2,134.5z"/>
	<path style="fill-rule:evenodd;clip-rule:evenodd;fill:#FFFFFF;" d="M484.3,177.9c0-2.7-0.1-4.9-0.4-6.5c-0.2-1.6-0.6-2.9-1.2-3.8
		c-0.5-0.9-1.2-1.5-2-1.8c-0.8-0.2-1.7-0.4-2.8-0.4c-0.9,0-1.8,0.1-2.9,0.4c-1.1,0.3-2.2,0.7-3.3,1.1c-1.1,0.4-2.1,0.9-3.1,1.3
		c-1,0.5-1.7,0.9-2.4,1.2l0,20.5c2,0.6,3.8,1,5.5,1.2c1.6,0.2,3.2,0.4,4.7,0.4c1.5,0,2.8-0.2,3.8-0.7c1-0.4,1.8-1.2,2.4-2.3
		c0.6-1.1,1.1-2.5,1.3-4.2C484.2,182.6,484.3,180.5,484.3,177.9L484.3,177.9z M490,178.1c0,2.9-0.2,5.5-0.7,7.8
		c-0.4,2.3-1.2,4.2-2.2,5.7c-1.1,1.6-2.5,2.7-4.3,3.5c-1.8,0.8-4,1.2-6.8,1.2c-1.3,0-2.8-0.1-4.5-0.4c-1.6-0.3-3.4-0.8-5.3-1.5
		l-0.1,0.1V207c0,0.4-0.1,0.8-0.2,1c-0.2,0.2-0.5,0.3-1,0.3h-3c-0.5,0-0.9-0.1-1-0.3c-0.1-0.2-0.2-0.6-0.2-1v-44.6
		c0-0.8,0.4-1.2,1.2-1.2l3,0c0.8,0,1.2,0.4,1.2,1.2v2.6l0.2,0.1c0.5-0.4,1.2-0.8,2.1-1.3c0.9-0.5,1.9-1,2.9-1.5
		c1.1-0.4,2.2-0.8,3.5-1.3c1.2-0.3,2.4-0.5,3.6-0.5c2.2,0,4.1,0.4,5.6,1.2c1.5,0.8,2.7,1.9,3.6,3.4c0.9,1.5,1.5,3.4,1.9,5.6
		C489.8,172.8,490,175.3,490,178.1L490,178.1z"/>
	<path style="fill-rule:evenodd;clip-rule:evenodd;fill:#FFFFFF;" d="M519.2,178.3c0-2.2-0.1-4.1-0.4-5.7c-0.2-1.6-0.7-3-1.4-4
		c-0.7-1.1-1.7-1.9-2.9-2.4c-1.3-0.5-2.8-0.8-4.8-0.8c-1.8,0-3.3,0.3-4.5,0.8c-1.2,0.5-2,1.4-2.7,2.4c-0.7,1.1-1.1,2.4-1.3,4.1
		c-0.2,1.6-0.3,3.5-0.3,5.7c0,2.2,0.1,4.1,0.3,5.7c0.2,1.6,0.7,2.9,1.3,4c0.7,1.1,1.6,1.9,2.7,2.4c1.1,0.5,2.6,0.8,4.5,0.8
		c1.9,0,3.5-0.2,4.8-0.8c1.2-0.5,2.1-1.3,2.9-2.4c0.7-1.1,1.1-2.4,1.4-4C519.1,182.4,519.2,180.5,519.2,178.3L519.2,178.3z
		 M524.7,177.8c0,2.1-0.1,4.2-0.3,6.4c-0.2,2.2-0.8,4.1-1.8,6c-1,1.8-2.5,3.3-4.4,4.4c-2,1.2-4.7,1.7-8.2,1.7c-3.4,0-6.1-0.5-8-1.7
		c-1.9-1.1-3.3-2.6-4.3-4.4c-0.9-1.8-1.5-3.8-1.7-6c-0.2-2.2-0.3-4.3-0.3-6.4c0-1.7,0.1-3.6,0.4-5.6c0.3-2.1,0.9-4,1.9-5.7
		c1-1.7,2.4-3.2,4.3-4.4c1.9-1.2,4.4-1.7,7.7-1.7c3.3,0,5.9,0.5,7.9,1.5c1.9,1,3.4,2.4,4.5,4c1,1.6,1.7,3.5,2,5.6
		C524.5,173.6,524.7,175.7,524.7,177.8L524.7,177.8z"/>
	<path style="fill-rule:evenodd;clip-rule:evenodd;fill:#FFFFFF;" d="M556.3,194.7c-1.4,0.6-3,1-5,1.2c-2,0.3-3.9,0.4-5.7,0.4
		c-3.1,0-5.6-0.4-7.5-1.4c-1.9-0.9-3.3-2.2-4.3-3.9c-1-1.6-1.7-3.6-2-5.7c-0.3-2.2-0.5-4.6-0.5-7c0-2.3,0.2-4.5,0.5-6.6
		c0.3-2.1,1-4,2-5.7c1-1.7,2.5-3,4.3-4c1.9-1,4.4-1.5,7.5-1.5c0.7,0,1.5,0,2.5,0.1c0.9,0,1.9,0.1,2.9,0.3c1,0.1,1.9,0.2,2.9,0.5
		c0.9,0.2,1.8,0.5,2.6,0.8c0.4,0.2,0.6,0.4,0.7,0.6c0.1,0.3,0.1,0.6,0,0.9l-0.3,1.6c-0.1,0.4-0.3,0.6-0.7,0.7
		c-0.4,0.1-0.8,0.1-1.2,0c-1.5-0.1-3.1-0.3-4.9-0.4c-1.8-0.1-3.3-0.2-4.6-0.2c-1.6,0-3,0.2-4.1,0.7c-1.1,0.5-1.9,1.2-2.6,2.2
		c-0.6,1-1.1,2.3-1.4,4c-0.3,1.6-0.4,3.7-0.4,6.1c0,2.6,0.1,4.8,0.4,6.5c0.3,1.7,0.7,3.1,1.4,4.1c0.7,1,1.5,1.8,2.6,2.2
		c1.1,0.4,2.4,0.7,4,0.7c0.6,0,1.3,0,2.1-0.1c0.8,0,1.7-0.1,2.6-0.1c0.9-0.1,1.8-0.2,2.7-0.2c0.9-0.1,1.7-0.1,2.4-0.2
		c0.4,0,0.8,0,1,0.1c0.3,0.1,0.4,0.4,0.6,0.9l0.3,1.5C557.2,193.9,557,194.4,556.3,194.7L556.3,194.7z"/>
	<path style="fill-rule:evenodd;clip-rule:evenodd;fill:#FFFFFF;" d="M586.6,194.7c-1.4,0.6-3,1-5,1.2c-2,0.3-3.9,0.4-5.8,0.4
		c-3.1,0-5.6-0.4-7.5-1.4c-1.9-0.9-3.3-2.2-4.3-3.9c-1-1.6-1.7-3.6-2-5.7c-0.3-2.2-0.5-4.6-0.5-7c0-2.3,0.2-4.5,0.5-6.6
		c0.3-2.1,1-4,2-5.7c1-1.7,2.5-3,4.3-4c1.9-1,4.4-1.5,7.5-1.5c0.7,0,1.6,0,2.5,0.1c0.9,0,1.9,0.1,2.9,0.3c1,0.1,1.9,0.2,2.9,0.5
		c0.9,0.2,1.8,0.5,2.5,0.8c0.4,0.2,0.6,0.4,0.7,0.6c0.1,0.3,0.1,0.6,0,0.9l-0.3,1.6c-0.1,0.4-0.3,0.6-0.7,0.7
		c-0.4,0.1-0.7,0.1-1.2,0c-1.4-0.1-3.1-0.3-4.9-0.4c-1.8-0.1-3.3-0.2-4.6-0.2c-1.6,0-2.9,0.2-4,0.7c-1.1,0.5-1.9,1.2-2.6,2.2
		c-0.7,1-1.1,2.3-1.4,4c-0.3,1.6-0.4,3.7-0.4,6.1c0,2.6,0.1,4.8,0.4,6.5c0.3,1.7,0.8,3.1,1.4,4.1c0.7,1,1.5,1.8,2.6,2.2
		c1.1,0.4,2.4,0.7,4,0.7c0.6,0,1.3,0,2.1-0.1c0.8,0,1.7-0.1,2.6-0.1c0.9-0.1,1.8-0.2,2.7-0.2c0.9-0.1,1.7-0.1,2.4-0.2
		c0.4,0,0.8,0,1,0.1c0.3,0.1,0.4,0.4,0.5,0.9l0.3,1.5C587.5,193.9,587.2,194.4,586.6,194.7L586.6,194.7z"/>
	<path style="fill-rule:evenodd;clip-rule:evenodd;fill:#FFFFFF;" d="M592.4,162.6c0-0.6,0.1-1,0.3-1.2c0.2-0.2,0.6-0.3,1.1-0.3
		l2.4,0c0.6,0,1,0.1,1.2,0.3c0.2,0.2,0.4,0.6,0.4,1.2v23.8l7.6-10.3l10.8-14c0.2-0.3,0.5-0.6,0.7-0.8c0.2-0.2,0.6-0.3,1.2-0.3l1.8,0
		c1,0,1.5,0.5,1.5,1.4v31.8c0,1-0.5,1.5-1.6,1.5h-2.1c-1.1,0-1.7-0.5-1.7-1.5v-25l-6.3,8.7l-12.7,16.8c-0.3,0.3-0.5,0.6-0.8,0.8
		c-0.3,0.2-0.7,0.3-1.2,0.3h-1.2c-0.9,0-1.4-0.5-1.4-1.5V162.6L592.4,162.6z"/>
	<path style="fill-rule:evenodd;clip-rule:evenodd;fill:#FFFFFF;" d="M643.7,157.5c-2,0-4-0.5-5.9-1.5c-1.9-1-3.4-2.7-4.4-5
		c-0.1-0.2-0.2-0.5-0.4-0.9c-0.1-0.4-0.1-0.7,0.2-0.9l1.5-1.2c0.2-0.2,0.4-0.2,0.6-0.2c0.2,0.1,0.4,0.2,0.6,0.4
		c0.7,0.8,1.4,1.5,1.9,2.2c0.6,0.6,1.2,1.1,1.8,1.5c0.6,0.4,1.3,0.7,2,0.9c0.7,0.2,1.5,0.3,2.3,0.3c0.9,0,1.6-0.1,2.2-0.3
		c0.6-0.2,1.2-0.5,1.8-0.9c0.5-0.4,1.1-0.9,1.6-1.5c0.6-0.6,1.2-1.3,1.9-2.1c0.4-0.4,0.8-0.5,1.2-0.2l1.5,1c0.3,0.2,0.3,0.5,0.2,0.9
		c-0.2,0.4-0.3,0.7-0.4,0.9c-1.1,2.3-2.6,4-4.4,5.1C647.6,156.9,645.7,157.5,643.7,157.5L643.7,157.5z M629.3,162.6
		c0-0.6,0.1-1,0.3-1.2c0.2-0.2,0.6-0.3,1.1-0.3l2.3,0c0.6,0,1,0.1,1.2,0.3c0.2,0.2,0.4,0.6,0.4,1.2v23.8l7.6-10.3l10.8-14
		c0.2-0.3,0.5-0.6,0.7-0.8c0.2-0.2,0.6-0.3,1.2-0.3l1.8,0c1,0,1.5,0.5,1.5,1.4v31.8c0,1-0.5,1.5-1.6,1.5h-2.2
		c-1.1,0-1.6-0.5-1.6-1.5v-25l-6.3,8.7l-12.7,16.8c-0.2,0.3-0.5,0.6-0.7,0.8c-0.3,0.2-0.7,0.3-1.2,0.3h-1.2c-1,0-1.4-0.5-1.4-1.5
		L629.3,162.6L629.3,162.6z"/>
	<path style="fill-rule:evenodd;clip-rule:evenodd;fill:#FFFFFF;" d="M690.4,194.7c-1.3,0.6-3,1-5,1.2c-2,0.3-3.9,0.4-5.7,0.4
		c-3.1,0-5.7-0.4-7.5-1.4c-1.9-0.9-3.3-2.2-4.3-3.9c-1-1.6-1.7-3.6-2-5.7c-0.3-2.2-0.5-4.6-0.5-7c0-2.3,0.2-4.5,0.5-6.6
		c0.3-2.1,1-4,2-5.7c1-1.7,2.4-3,4.3-4c1.9-1,4.4-1.5,7.5-1.5c0.7,0,1.5,0,2.5,0.1c0.9,0,1.9,0.1,2.9,0.3c1,0.1,1.9,0.2,2.9,0.5
		c1,0.2,1.8,0.5,2.6,0.8c0.4,0.2,0.6,0.4,0.7,0.6c0.1,0.3,0.1,0.6,0,0.9l-0.3,1.6c0,0.4-0.3,0.6-0.7,0.7c-0.3,0.1-0.7,0.1-1.2,0
		c-1.5-0.1-3.1-0.3-4.9-0.4c-1.8-0.1-3.3-0.2-4.6-0.2c-1.6,0-3,0.2-4.1,0.7c-1.1,0.5-1.9,1.2-2.6,2.2c-0.6,1-1.1,2.3-1.4,4
		c-0.3,1.6-0.4,3.7-0.4,6.1c0,2.6,0.1,4.8,0.4,6.5c0.3,1.7,0.8,3.1,1.4,4.1c0.7,1,1.5,1.8,2.6,2.2c1.1,0.4,2.4,0.7,4,0.7
		c0.6,0,1.3,0,2.1-0.1c0.8,0,1.7-0.1,2.6-0.1c0.9-0.1,1.8-0.2,2.7-0.2c0.9-0.1,1.7-0.1,2.4-0.2c0.4,0,0.8,0,1,0.1
		c0.2,0.1,0.5,0.4,0.5,0.9l0.3,1.5C691.3,193.9,691.1,194.4,690.4,194.7L690.4,194.7z"/>
	<path style="fill-rule:evenodd;clip-rule:evenodd;fill:#FFFFFF;" d="M701.8,194.8c0,0.7-0.3,1-1,1h-3.4c-0.7,0-1.1-0.3-1.1-1v-32.6
		c0-0.4,0.1-0.7,0.2-0.9c0.1-0.1,0.4-0.2,0.8-0.2l3.4,0c0.4,0,0.7,0.1,0.8,0.2c0.1,0.2,0.2,0.4,0.2,0.9v13.7h4.8
		c0.6,0,1.2-0.1,1.9-0.2c0.7-0.1,1.4-0.4,2-0.7c0.6-0.4,1.3-1,1.8-1.8c0.5-0.8,1.1-1.8,1.5-3.1l2.7-7.8c0.1-0.5,0.3-0.8,0.6-0.9
		c0.2-0.1,0.5-0.2,0.9-0.2l2.7,0c0.7,0,1.1,0.1,1.2,0.4c0.1,0.2,0.1,0.6-0.1,1.1l-2.6,7.6c-0.7,1.9-1.4,3.6-2.1,4.9
		c-0.8,1.3-1.8,2.2-3.1,2.6c0.9,0.4,1.6,0.8,2.3,1.2c0.6,0.5,1.1,1,1.6,1.6c0.4,0.6,0.8,1.4,1.1,2.1c0.3,0.8,0.6,1.6,1,2.6l3,9.1
		c0.1,0.4,0.1,0.9,0,1.1c-0.1,0.3-0.4,0.4-1.1,0.4h-2.9c-0.4,0-0.7-0.1-0.9-0.2c-0.2-0.2-0.4-0.4-0.6-0.9l-2.7-8.2
		c-0.4-1.3-0.9-2.3-1.5-3.1c-0.6-0.8-1.2-1.3-1.9-1.7c-0.6-0.4-1.4-0.6-2.1-0.8c-0.8-0.1-1.5-0.2-2.3-0.2h-5.1V194.8L701.8,194.8z"
		/>
	<path style="fill-rule:evenodd;clip-rule:evenodd;fill:#FFFFFF;" d="M728.7,162.6c0-0.6,0.1-1,0.3-1.2c0.2-0.2,0.6-0.3,1.1-0.3
		l2.3,0c0.6,0,1,0.1,1.2,0.3c0.2,0.2,0.3,0.6,0.3,1.2v23.8l7.6-10.3l10.8-14c0.2-0.3,0.5-0.6,0.7-0.8c0.2-0.2,0.6-0.3,1.2-0.3l1.8,0
		c1,0,1.5,0.5,1.5,1.4l0,31.8c0,1-0.5,1.5-1.5,1.5h-2.2c-1.1,0-1.6-0.5-1.6-1.5v-25l-6.4,8.7l-12.6,16.8c-0.2,0.3-0.5,0.6-0.8,0.8
		c-0.3,0.2-0.7,0.3-1.2,0.3h-1.2c-1,0-1.5-0.5-1.5-1.5V162.6L728.7,162.6z"/>
	<path style="fill-rule:evenodd;clip-rule:evenodd;fill:#FFFFFF;" d="M779.9,157.5c-2.1,0-4-0.5-5.9-1.5c-1.9-1-3.4-2.7-4.4-5
		c-0.1-0.2-0.2-0.5-0.3-0.9c-0.1-0.4-0.1-0.7,0.1-0.9l1.5-1.2c0.2-0.2,0.5-0.2,0.6-0.2c0.2,0.1,0.4,0.2,0.6,0.4
		c0.7,0.8,1.4,1.5,1.9,2.2c0.6,0.6,1.2,1.1,1.8,1.5c0.6,0.4,1.2,0.7,1.9,0.9c0.7,0.2,1.5,0.3,2.3,0.3c0.8,0,1.5-0.1,2.2-0.3
		c0.6-0.2,1.2-0.5,1.7-0.9c0.5-0.4,1.1-0.9,1.7-1.5c0.6-0.6,1.2-1.3,1.9-2.1c0.4-0.4,0.8-0.5,1.2-0.2l1.5,1c0.3,0.2,0.3,0.5,0.2,0.9
		c-0.2,0.4-0.3,0.7-0.4,0.9c-1.1,2.3-2.6,4-4.4,5.1C783.8,156.9,781.9,157.5,779.9,157.5L779.9,157.5z M765.5,162.6
		c0-0.6,0.1-1,0.3-1.2c0.2-0.2,0.6-0.3,1.1-0.3l2.4,0c0.6,0,1,0.1,1.2,0.3c0.2,0.2,0.3,0.6,0.3,1.2v23.8l7.6-10.3l10.8-14
		c0.2-0.3,0.5-0.6,0.7-0.8c0.2-0.2,0.6-0.3,1.2-0.3l1.8,0c1,0,1.5,0.5,1.5,1.4v31.8c0,1-0.5,1.5-1.6,1.5h-2.1
		c-1.1,0-1.6-0.5-1.6-1.5v-25l-6.3,8.7l-12.7,16.8c-0.2,0.3-0.5,0.6-0.8,0.8c-0.3,0.2-0.7,0.3-1.2,0.3h-1.2c-0.9,0-1.4-0.5-1.4-1.5
		L765.5,162.6L765.5,162.6z"/>
	<path style="fill-rule:evenodd;clip-rule:evenodd;fill:#FFFFFF;" d="M466.2,256.6c0,0.7-0.3,1-1,1h-3.4c-0.7,0-1.1-0.3-1.1-1V224
		c0-0.4,0.1-0.7,0.2-0.9c0.2-0.1,0.5-0.2,0.8-0.2h3.4c0.4,0,0.6,0.1,0.8,0.2c0.1,0.1,0.2,0.5,0.2,0.9l0,13.7h4.8c0.6,0,1.3,0,2-0.1
		c0.7-0.1,1.3-0.4,2-0.8c0.7-0.4,1.3-1,1.8-1.7c0.6-0.8,1.1-1.8,1.5-3.1l2.7-7.9c0.2-0.4,0.3-0.8,0.6-0.9c0.2-0.1,0.5-0.2,0.9-0.2
		h2.6c0.7,0,1.1,0.2,1.2,0.3c0.1,0.3,0.1,0.7-0.1,1.2l-2.6,7.6c-0.7,1.9-1.4,3.6-2.2,4.9c-0.8,1.3-1.8,2.2-3,2.6
		c0.9,0.3,1.6,0.7,2.2,1.2c0.6,0.4,1.1,1,1.6,1.6c0.4,0.6,0.8,1.3,1.1,2.1c0.3,0.8,0.6,1.6,1,2.6l3,9.1c0.1,0.4,0.2,0.8,0,1.1
		c-0.1,0.3-0.5,0.4-1.1,0.4h-2.9c-0.4,0-0.7-0.1-0.9-0.2c-0.3-0.2-0.4-0.5-0.6-1l-2.7-8.2c-0.4-1.3-0.9-2.3-1.5-3.1
		c-0.6-0.8-1.2-1.4-1.9-1.8c-0.7-0.4-1.4-0.6-2.1-0.7c-0.8-0.1-1.5-0.2-2.3-0.2h-5.1V256.6L466.2,256.6z"/>
	<path style="fill-rule:evenodd;clip-rule:evenodd;fill:#FFFFFF;" d="M515.4,240.9h-10.5c-2.2,0-3.9,0.5-5.2,1.5
		c-1.3,1-1.9,2.9-1.9,5.7c0,2,0.4,3.3,1.2,4.1c0.8,0.7,2.2,1.1,4.3,1.1c0.9,0,1.9-0.1,2.9-0.3c1.1-0.2,2.1-0.6,3.2-1
		c1.1-0.4,2.2-0.8,3.2-1.3c1-0.5,1.9-1,2.7-1.4V240.9L515.4,240.9z M515.3,253.8c-1.8,1-3.7,2.1-5.9,3c-2.2,1-4.7,1.5-7.5,1.5
		c-3.5,0-6-0.9-7.4-2.5c-1.5-1.6-2.2-4.1-2.2-7.3c0-4,1-7,3.1-9c2-2,5.4-2.9,10.2-2.9h9.8V234c0-2.6-0.6-4.4-1.8-5.4
		c-1.2-1-3.4-1.5-6.5-1.5c-0.6,0-1.4,0.1-2.2,0.1c-0.8,0-1.7,0.1-2.6,0.1c-0.9,0.1-1.8,0.1-2.7,0.2c-0.9,0.1-1.7,0.2-2.5,0.2
		c-0.8,0.1-1.3,0-1.4-0.7l-0.4-1.8c-0.1-0.3,0-0.6,0.1-0.9c0.2-0.2,0.5-0.5,1-0.7c0.7-0.2,1.6-0.4,2.6-0.6c1-0.2,2-0.3,3.1-0.5
		c1.1-0.1,2.2-0.2,3.3-0.3c1,0,2,0,2.9,0c2.8,0,5.1,0.3,6.8,0.9c1.7,0.7,3,1.5,3.9,2.6c0.9,1.1,1.5,2.4,1.7,4
		c0.2,1.6,0.4,3.3,0.4,5.2v15.7c0,0.7,0,1.2,0.1,1.6c0.1,0.4,0.2,0.7,0.3,0.9c0.2,0.2,0.4,0.3,0.8,0.4c0.3,0,0.8,0.1,1.3,0.1
		c0.8,0.1,1.2,0.4,1.2,1v1.7c0,0.4-0.1,0.6-0.3,0.8c-0.2,0.2-0.6,0.4-1.2,0.5c-0.9,0.2-1.7,0.2-2.5,0.2c-1.7,0-2.9-0.3-3.7-0.9
		c-0.8-0.7-1.3-1.7-1.5-3.2H515.3L515.3,253.8z"/>
	<path style="fill-rule:evenodd;clip-rule:evenodd;fill:#FFFFFF;" d="M556.9,257.6h-3c-0.8,0-1.2-0.4-1.2-1.3v-28.6H535v28.6
		c0,0.8-0.4,1.3-1.2,1.3h-2.9c-0.8,0-1.2-0.4-1.2-1.3v-32.2c0-0.8,0.4-1.2,1.2-1.2H557c0.4,0,0.7,0.1,0.9,0.2
		c0.2,0.2,0.3,0.5,0.3,1.1v32.1C558.2,257.2,557.8,257.6,556.9,257.6L556.9,257.6z"/>
	<path style="fill-rule:evenodd;clip-rule:evenodd;fill:#FFFFFF;" d="M566,224.5c0-0.6,0.1-1,0.3-1.2c0.2-0.2,0.6-0.3,1.1-0.3h2.3
		c0.6,0,1,0.1,1.2,0.3c0.2,0.2,0.3,0.6,0.3,1.2v23.8l7.6-10.2l10.8-14c0.2-0.3,0.5-0.5,0.7-0.7c0.2-0.2,0.6-0.3,1.2-0.3h1.8
		c1,0,1.5,0.5,1.5,1.4v31.9c0,0.9-0.5,1.4-1.6,1.4h-2.1c-1.1,0-1.7-0.5-1.7-1.4v-25l-6.3,8.7l-12.7,16.7c-0.2,0.3-0.5,0.6-0.8,0.8
		c-0.3,0.2-0.7,0.3-1.2,0.3h-1.2c-1,0-1.5-0.5-1.5-1.4V224.5L566,224.5z"/>
	<path style="fill-rule:evenodd;clip-rule:evenodd;fill:#FFFFFF;" d="M627.7,227.5c-0.2,0.2-0.6,0.3-1.3,0.3h-9.8v28.3
		c0,0.9-0.5,1.4-1.6,1.4H613c-1.2,0-1.7-0.5-1.7-1.4v-28.3h-9.9c-0.7,0-1.1-0.1-1.4-0.3c-0.2-0.3-0.4-0.6-0.4-1.2v-2
		c0-1,0.5-1.4,1.6-1.4h25.2c0.6,0,1,0.2,1.2,0.3c0.2,0.3,0.3,0.6,0.3,1.1v2C628.1,226.9,627.9,227.3,627.7,227.5L627.7,227.5z"/>
	<path style="fill-rule:evenodd;clip-rule:evenodd;fill:#FFFFFF;" d="M651.4,240.9H641c-2.2,0-3.9,0.5-5.2,1.5
		c-1.3,1-1.9,2.9-1.9,5.7c0,2,0.4,3.3,1.2,4.1c0.8,0.7,2.2,1.1,4.3,1.1c0.9,0,1.9-0.1,2.9-0.3c1.1-0.2,2.2-0.6,3.2-1
		c1.1-0.4,2.2-0.8,3.2-1.3c1-0.5,2-1,2.8-1.4V240.9L651.4,240.9z M651.4,253.8c-1.7,1-3.7,2.1-5.9,3c-2.2,1-4.7,1.5-7.5,1.5
		c-3.5,0-5.9-0.9-7.4-2.5c-1.5-1.6-2.2-4.1-2.2-7.3c0-4,1-7,3-9c2.1-2,5.5-2.9,10.2-2.9h9.8V234c0-2.6-0.6-4.4-1.8-5.4
		c-1.2-1-3.4-1.5-6.5-1.5c-0.7,0-1.4,0.1-2.3,0.1c-0.8,0-1.7,0.1-2.6,0.1c-0.9,0.1-1.8,0.1-2.7,0.2c-0.9,0.1-1.7,0.2-2.5,0.2
		c-0.8,0.1-1.3,0-1.4-0.7l-0.4-1.8c-0.1-0.3-0.1-0.6,0.1-0.9c0.2-0.2,0.5-0.5,1-0.7c0.7-0.2,1.6-0.4,2.6-0.6c1-0.2,2-0.3,3.1-0.5
		c1.1-0.1,2.2-0.2,3.2-0.3c1.1,0,2,0,2.9,0c2.9,0,5.1,0.3,6.8,0.9c1.7,0.7,3,1.5,3.9,2.6c0.9,1.1,1.5,2.4,1.7,4
		c0.2,1.6,0.4,3.3,0.4,5.2v15.7c0,0.7,0,1.2,0.1,1.6c0.1,0.4,0.2,0.7,0.3,0.9c0.2,0.2,0.4,0.3,0.7,0.4c0.4,0,0.8,0.1,1.4,0.1
		c0.8,0.1,1.2,0.4,1.2,1v1.7c0,0.4-0.1,0.6-0.3,0.8c-0.2,0.2-0.6,0.4-1.1,0.5c-0.8,0.2-1.7,0.2-2.5,0.2c-1.7,0-2.9-0.3-3.7-0.9
		c-0.8-0.7-1.3-1.7-1.5-3.2H651.4L651.4,253.8z"/>
	<path style="fill-rule:evenodd;clip-rule:evenodd;fill:#FFFFFF;" d="M692.4,223c0.5,0,0.9,0.1,1.2,0.3c0.3,0.2,0.4,0.6,0.4,1.2
		v31.7c0,0.9-0.5,1.4-1.5,1.4h-2.4c-1,0-1.5-0.5-1.5-1.4v-28.3h-12.7l-1.5,17.8c-0.1,1.8-0.4,3.4-0.6,4.9c-0.3,1.5-0.8,2.8-1.5,4
		c-0.7,1.1-1.8,2-3.1,2.7c-1.3,0.6-3.2,1-5.5,1.1c-0.7,0-1.1-0.1-1.3-0.3c-0.1-0.1-0.2-0.4-0.2-0.9l0-1.9c0-0.4,0-0.6,0.2-0.7
		c0.1-0.1,0.4-0.2,0.8-0.3c1.2-0.2,2.2-0.5,2.9-0.8c0.8-0.4,1.4-1,1.9-1.6c0.5-0.7,0.9-1.7,1.1-2.9c0.2-1.2,0.5-2.8,0.7-4.8
		l1.7-17.5c0.1-1.4,0.6-2.3,1.2-2.8c0.6-0.5,1.6-0.7,2.9-0.7H692.4L692.4,223z"/>
</g>
</svg>
