<svg xmlns="http://www.w3.org/2000/svg" xmlns:xlink="http://www.w3.org/1999/xlink" preserveAspectRatio="xMidYMid" width="20" height="17" viewBox="0 0 20 17">
  <defs>
    <style>
      .cls-1 {
        fill: #fff;
        fill-rule: evenodd;
      }
    </style>
  </defs>
  <path d="M19.996,1.965 C19.278,2.290 18.506,2.507 17.699,2.605 C18.524,2.103 19.158,1.310 19.458,0.363 C18.682,0.826 17.828,1.163 16.917,1.346 C16.187,0.558 15.146,0.069 13.998,0.069 C11.787,0.069 9.996,1.880 9.996,4.117 C9.996,4.435 10.033,4.747 10.100,5.040 C6.777,4.871 3.829,3.261 1.857,0.809 C1.511,1.406 1.314,2.102 1.314,2.844 C1.314,4.251 2.020,5.490 3.092,6.217 C2.437,6.198 1.821,6.014 1.280,5.713 C1.280,5.729 1.280,5.742 1.280,5.762 C1.280,7.725 2.660,9.362 4.489,9.734 C4.155,9.828 3.800,9.880 3.437,9.880 C3.177,9.880 2.927,9.850 2.681,9.806 C3.192,11.413 4.669,12.588 6.419,12.617 C5.051,13.706 3.325,14.352 1.452,14.352 C1.130,14.352 0.812,14.333 0.498,14.297 C2.267,15.446 4.370,16.115 6.631,16.115 C13.988,16.115 18.010,9.945 18.010,4.588 C18.010,4.413 18.009,4.240 17.999,4.061 C18.781,3.493 19.461,2.777 19.996,1.965 Z" class="cls-1"/>
</svg>
