<svg xmlns="http://www.w3.org/2000/svg" xmlns:xlink="http://www.w3.org/1999/xlink" preserveAspectRatio="xMidYMid" width="23" height="14" viewBox="0 0 23 14">
  <defs>
    <style>
      .cls-1 {
        fill: #fff;
        fill-rule: evenodd;
      }
    </style>
  </defs>
  <path d="M12.870,3.517 C12.870,4.139 12.865,4.762 12.872,5.385 C12.875,5.596 12.906,5.806 12.930,6.015 C12.940,6.097 12.965,6.178 12.992,6.256 C13.177,6.803 13.505,6.914 13.909,6.530 C14.184,6.267 14.434,5.965 14.654,5.650 C15.546,4.371 16.239,2.976 16.790,1.499 C16.831,1.390 16.878,1.284 16.935,1.185 C17.053,0.977 17.230,0.882 17.461,0.881 C18.711,0.873 19.962,0.855 21.212,0.854 C21.407,0.854 21.608,0.898 21.797,0.957 C21.987,1.015 22.103,1.181 22.069,1.391 C22.023,1.673 21.968,1.961 21.862,2.223 C21.580,2.921 21.177,3.550 20.754,4.159 C20.184,4.981 19.595,5.785 19.021,6.602 C18.865,6.824 18.726,7.063 18.595,7.302 C18.384,7.690 18.417,8.069 18.698,8.398 C18.990,8.739 19.300,9.065 19.617,9.382 C20.278,10.044 20.932,10.713 21.477,11.489 C21.643,11.724 21.784,11.979 21.928,12.231 C21.982,12.325 22.020,12.432 22.049,12.538 C22.143,12.885 22.050,13.175 21.741,13.324 C21.508,13.435 21.243,13.519 20.989,13.528 C19.987,13.567 18.983,13.575 17.980,13.585 C17.388,13.590 16.872,13.342 16.452,12.927 C15.981,12.462 15.560,11.939 15.113,11.447 C14.903,11.213 14.685,10.988 14.466,10.765 C14.406,10.703 14.333,10.655 14.261,10.609 C13.874,10.364 13.551,10.439 13.297,10.838 C13.054,11.219 12.984,11.658 12.934,12.103 C12.915,12.280 12.906,12.458 12.902,12.635 C12.892,13.193 12.652,13.511 12.124,13.526 C11.096,13.557 10.066,13.590 9.056,13.287 C7.411,12.793 6.066,11.822 4.953,10.465 C4.002,9.305 3.207,8.028 2.474,6.707 C1.597,5.128 0.813,3.497 0.115,1.820 C0.053,1.672 0.028,1.501 0.007,1.339 C-0.016,1.155 0.075,1.021 0.238,0.968 C0.397,0.915 0.563,0.869 0.728,0.863 C1.169,0.846 1.611,0.854 2.052,0.849 C2.603,0.845 3.155,0.834 3.706,0.832 C4.194,0.831 4.498,1.048 4.682,1.522 C5.273,3.041 6.000,4.481 6.907,5.815 C7.057,6.035 7.231,6.238 7.407,6.436 C7.495,6.537 7.604,6.622 7.717,6.691 C8.021,6.881 8.297,6.802 8.427,6.457 C8.529,6.186 8.602,5.895 8.636,5.606 C8.756,4.586 8.729,3.563 8.619,2.542 C8.608,2.438 8.581,2.335 8.559,2.233 C8.447,1.705 8.126,1.398 7.644,1.261 C7.583,1.244 7.521,1.232 7.460,1.215 C7.319,1.179 7.294,1.122 7.376,0.992 C7.548,0.715 7.793,0.523 8.093,0.456 C8.492,0.367 8.899,0.282 9.305,0.268 C10.018,0.245 10.733,0.267 11.447,0.291 C11.696,0.300 11.945,0.366 12.191,0.421 C12.612,0.514 12.867,0.804 12.895,1.250 C12.930,1.803 12.912,2.360 12.917,2.916 C12.918,3.116 12.917,3.317 12.917,3.517 C12.901,3.517 12.885,3.517 12.870,3.517 Z" class="cls-1"/>
</svg>
