<svg width="63" height="18" viewBox="0 0 63 18" xmlns="http://www.w3.org/2000/svg"><title>RBC-ru</title><g fill="none" fill-rule="evenodd"><path fill="#9AD0AF" d="M.343.514v15.43L15.77.513"/><path fill="#005F65" d="M17.314 2.143L1.886 17.486h15.428"/><path d="M26.4.514h-5.486V17.4h3.43v-6.257h2.142c3.943 0 6.257-1.886 6.257-5.23V5.83C32.657 2.485 30.343.513 26.4.513zm2.914 5.4c0 1.715-1.028 2.657-3 2.657H24.17V3.258h2.144c2.057 0 3 .857 3 2.572v.084zM40.97 7.2h-2.74V3.257h7.37V.514H34.8V17.4h6.086c3.857 0 6.085-1.886 6.085-5.143v-.086c0-3.17-2.14-4.97-6-4.97zm-2.827 2.486h2.486c2.056 0 3 .77 3 2.485v.087c0 1.63-.944 2.486-2.916 2.486h-2.57V9.686zM55.37 8.57L62.4.515h-3.77L52.542 7.8V.514h-3.43v16.972h3.43V9.943l6.086 7.543h4.113" fill="#FFF"/></g></svg>